<svg xmlns="http://www.w3.org/2000/svg" viewBox="0 0 206.03 17.52"><defs><style>.cls-1{fill:#fcfafa;}</style></defs><title>whiteAsset 6white</title><g id="Layer_2" data-name="Layer 2"><g id="Layer_1-2" data-name="Layer 1"><path class="cls-1" d="M27.11,17.22c-3.78-1.32-5.52-2.58-6.6-4.8A7.57,7.57,0,0,1,21,4.26,9.25,9.25,0,0,1,25.91.6C27.59,0,27.65,0,36.77,0s9.12,0,10.8.6a10.26,10.26,0,0,1,5.52,4.26c.42.84.54,1.44.54,3.78,0,2.82-.24,3.66-1.32,5a12.19,12.19,0,0,1-5.1,3.18c-1.92.66-2,.66-10.62.6-5.22,0-9-.12-9.48-.24Zm18.48-4.5a6.08,6.08,0,0,0,2-1.26c1-.9,1-.9,1-2.64a3.57,3.57,0,0,0-2.34-3.9c-1.08-.54-1.38-.54-9-.6-6.78-.12-8-.06-9.12.3C26.15,5.28,25.31,6,25,7.56c-.72,3,.72,4.8,4.26,5.46,1.86.36,15.18.12,16.32-.3Zm17,4.56c-.3-.12-1-.36-1.5-.54a12,12,0,0,1-4.62-2.94A9,9,0,0,1,55,6.72C56,3.54,57.77,1.86,61.19.6c1.44-.54,2.1-.6,5-.6s3.6.06,5,.6c1.74.66,3,1.32,3,1.68a11.11,11.11,0,0,1-.84,1.14A15.64,15.64,0,0,0,72.23,5c-.36.54-.48.54-1,.3A13.43,13.43,0,0,0,66,4.26c-2.34.06-4.2.72-5.1,1.86a3.06,3.06,0,0,0-.78,2.58,3.38,3.38,0,0,0,.6,2.46c1.2,1.62,4.26,2.28,7.68,1.68a9.79,9.79,0,0,0,2.46-.6,1.09,1.09,0,0,1,.66-.24c.54,0,2.76,2.94,2.58,3.36S71.93,16.62,70,17.22a30,30,0,0,1-7.32.06ZM.17,16.62a54.46,54.46,0,0,1,0-8.28C.29,8.1,2.15,8,6.41,8c5.52-.12,6.06-.12,6.54-.6a1.36,1.36,0,0,0,.18-2c-.36-.48-.72-.54-6.6-.6C2.15,4.74.35,4.62.17,4.44A7.33,7.33,0,0,1,.35.66C.65.24,1.13.18,7.13.3s6.6.18,7.68.66A6.47,6.47,0,0,1,18.23,4.2C19,7,17.93,10,16,10.62c-.24.12-.48.24-.48.36A26.29,26.29,0,0,0,17,13.74a13.81,13.81,0,0,1,1.38,2.94c-.12.24-.78.3-2.52.3-2.52,0-2.64-.06-3.48-1.62-.24-.42-.78-1.32-1.14-2l-.72-1.26-2.64-.06L5.27,12l-.06,2.4-.12,2.46-2.4.06c-2,.06-2.4.06-2.52-.3Zm75.24.24c-.12-.12-.18-3.84-.18-8.22,0-7.14.06-8.1.42-8.22A9,9,0,0,1,78,.24c2.46,0,2.58.12,2.52,3.36-.06,1.26-.06,2.4-.06,2.52s.54-.24,1.08-.78,1.8-1.56,2.64-2.22l2.58-2c1-.84,1-.84,3.9-.84,3.84,0,3.78.12-.48,3.6C86.33,7,85.85,7.38,85.85,7.62s2.16,2.7,6.48,7.2a7.84,7.84,0,0,1,1.44,1.86c0,.24-.72.3-2.88.3H88.07l-2.94-3.12c-1.62-1.68-3.06-3.12-3.12-3.12a3.3,3.3,0,0,0-1,.66c-.78.6-.78.66-.6,2.46a9.92,9.92,0,0,1-.06,2.46c-.18.66-.18.66-2.46.66a15.87,15.87,0,0,1-2.52-.12Zm26,0a48.52,48.52,0,0,1-.18-6c0-6.66-.24-6.12,2.52-6.12,1.62,0,1.68.06,1.86.66s.24.72,1.08,0a6.79,6.79,0,0,1,4.5-.78,6.12,6.12,0,0,1,5,4.44,19.63,19.63,0,0,1,.24,4.44l-.06,3.36h-4.26L112,13.5c-.18-3.66-.36-4.44-1.38-5.1a4.2,4.2,0,0,0-3.6,0c-1,.72-1.14,1.38-1.26,5l-.18,3.48-2,.06a9.23,9.23,0,0,1-2.16-.06Zm25.44-.12a82.81,82.81,0,0,1-.18-8.28c.06-.36.6-.42,6.18-.48,6.12-.12,6.18-.12,6.6-.72.6-.72.6-1.08,0-1.8-.42-.6-.48-.6-6.42-.66a51.87,51.87,0,0,1-6.18-.3c-.36-.36-.24-3.78.12-4A39.36,39.36,0,0,1,133.73.3c5.76.12,6.48.18,7.5.6C143.81,2.1,145,3.78,145,6.24a4.75,4.75,0,0,1-2.16,4.14l-.9.78.66,1.2c.42.72,1.08,1.86,1.56,2.58,1.26,2,1.26,2-1.8,2h-2.58l-1.44-2.46L137,12h-5.22l-.06,2.46-.06,2.4-2.28.06c-1.38.06-2.4,0-2.46-.18Zm19.8.12c-.12-.12-.18-3.84-.18-8.22,0-7.14.06-8.1.36-8.22a12.94,12.94,0,0,1,4.32.06c.24.12.3,1.92.36,8.1,0,4.38-.12,8-.18,8.16-.18.3-4.44.36-4.68.12Zm6.72,0c-.12-.12-.18-3.84-.18-8.28V.48l.6-.12c.3-.06,6.66-.12,14-.06,13.26.06,13.5.12,14.88.66a9.3,9.3,0,0,1,4.08,3.66,10.45,10.45,0,0,1,.24,7.44A8.24,8.24,0,0,1,184,15.9c-2,1.08-2.52,1.08-16.74,1.08-7.5,0-13.68-.06-13.8-.12Zm28-5.16a5,5,0,0,0,.12-6l-.72-.84H158.45l-.06,3.84c0,2.34.06,3.84.24,3.9s5.1.12,11.1.06l10.8-.06.84-.9Zm7.74,5c-.06-.18-.12-3.9-.06-8.28l.06-8h16.74L206,2.58,206,4.74l-5.94.06-6,.06L194,5.7l-.06.78h5.76c5,0,5.76.06,5.88.42a9.94,9.94,0,0,1-.06,3.54c-.18.24-1.68.3-5.82.36l-5.64.06v1.68l5.88.06h5.88l.12,2.22L206,17h-8.4c-6.54,0-8.4-.06-8.52-.3Zm-96.42-10a30.91,30.91,0,0,1,3-6c.48-.54,4.26-.6,4.44-.06.18.36-2.7,5.58-3.36,6.06A4,4,0,0,1,94.61,7c-1.26,0-1.86-.12-1.92-.36Zm24.9-.06a1,1,0,0,1,.18-.78,17.73,17.73,0,0,0,1.44-2.58c1.5-3,1.5-3,3.78-3,1.32,0,2,.12,2.1.3.06.36-.42,1.38-1.92,4C121.79,7,121.73,7,119.63,7c-1.5,0-1.92-.12-2-.42Z"/><path class="cls-1" d="M26.33,16.8c-3.9-1.32-5.88-3.36-6.6-6.78A8.18,8.18,0,0,1,24.05,1.5C26.81.06,27.17,0,36.77,0h8.88l1.74.66a10.44,10.44,0,0,1,4.44,2.7c1.5,1.5,1.8,2.4,1.8,5.4s-.42,4.08-2.34,5.76A10.87,10.87,0,0,1,46.67,17c-1.56.48-2.16.54-10,.48H28.37l-2-.66ZM46,12.6a8.62,8.62,0,0,0,1.86-1.32,3.13,3.13,0,0,0,.84-2.34,3.11,3.11,0,0,0-.54-2.46A5.89,5.89,0,0,0,46.49,5l-1.14-.6-8.1-.06c-7.32-.12-8.28-.06-9.48.36-2.28.78-3.3,2.58-2.88,5.16a4.08,4.08,0,0,0,3.12,3c1.14.3,2.64.36,9.12.36,7.32-.06,7.8-.12,8.88-.6Zm16.38,4.5C58.31,16,55.85,13.74,55,10.26a8.18,8.18,0,0,1,4-8.58C61.37.36,62.87,0,66.29,0a21.43,21.43,0,0,1,3.78.24c3.18,1.26,3.9,1.62,3.9,2A5.79,5.79,0,0,1,72.89,4L71.75,5.4l-1.68-.54a10.64,10.64,0,0,0-3.78-.6c-4.38,0-6.54,1.68-6.24,5,.18,2.16,1.44,3.24,4.32,3.84a13.33,13.33,0,0,0,6.18-.72c1.08-.54,1.32-.48,1.92.48a7.72,7.72,0,0,0,1,1.26c.9.84.66,1.38-.84,2a21.67,21.67,0,0,1-2.76,1,21,21,0,0,1-7.5-.06ZM.23,12.54V8L6.53,8c5.88-.12,6.3-.12,6.6-.6a1.7,1.7,0,0,0-.06-2.16c-.3-.24-1.86-.36-6.54-.48L.35,4.62l-.06-2L.23.48H6.71c5.34,0,6.72.12,7.74.42a6.11,6.11,0,0,1,3.3,2.4,6.59,6.59,0,0,1,.48,4.44,6.1,6.1,0,0,1-2.46,3.06c-.48.12-.36.42,1.56,3.54a7.83,7.83,0,0,1,1.08,2.28,6.28,6.28,0,0,1-2.46.3l-2.4.12-.9-1.38c-.48-.72-1.14-1.8-1.44-2.4l-.66-1.14-2.64-.06L5.27,12l-.06,2.4-.12,2.46-2.4.06L.23,17Zm75.12,4.14c-.06-.18-.06-3.84-.06-8.16L75.35.6,77.81.54,80.27.48V3.36c0,1.8.06,2.88.24,2.88a2.35,2.35,0,0,0,1-.72,20.46,20.46,0,0,1,2-1.68c.66-.54,1.86-1.5,2.58-2.16L87.35.54l3-.06c3.72-.06,3.84.12,1.5,1.92-.9.66-2.28,1.74-2.94,2.34s-1.8,1.56-2.4,2l-1.08.9,2.1,2.22c1.14,1.2,3,3.18,4.2,4.38a8.87,8.87,0,0,1,1.92,2.46,7.45,7.45,0,0,1-2.82.24H88.19l-1.44-1.44c-.72-.78-2.1-2.22-2.94-3.12A12.66,12.66,0,0,0,82,10.74a2.59,2.59,0,0,0-.9.54c-.66.48-.66.66-.78,3.06l-.18,2.52-2.28.06c-1.74.06-2.34,0-2.46-.24Zm26,.18a108.56,108.56,0,0,1,.06-11.7,14.56,14.56,0,0,1,2-.18c1.68-.12,1.86-.06,2,.48s.24.66,1.38-.06c.9-.66,1.74-.78,4.08-.66a4.9,4.9,0,0,1,3.72,1.86c1.44,1.56,1.8,3,1.8,7,0,3.66.12,3.54-2.76,3.42l-1.62-.12L112,13.38a15.36,15.36,0,0,0-.48-4.08A2.86,2.86,0,0,0,108.77,8c-2.46,0-3,1-3,5.28a25.6,25.6,0,0,1-.18,3.36c-.12.3-.54.36-2.1.36a11.93,11.93,0,0,1-2.1-.12Zm25.44-.18c-.06-.18-.06-2.16,0-4.44l.06-4.14,6-.12c5.52-.12,6.12-.12,6.6-.6a1.36,1.36,0,0,0,.12-2c-.36-.48-.78-.54-6.54-.66l-6.18-.12V.6l6.36-.06c5.34-.06,6.6,0,7.62.36,3.54,1.14,5.22,5,3.36,7.92a4.69,4.69,0,0,1-1.5,1.56c-.42.18-.72.54-.72.78a16.4,16.4,0,0,0,1.5,2.88,11.57,11.57,0,0,1,1.38,2.7c-.18.3-4.62.36-5,.06a10.1,10.1,0,0,1-1.32-2.16,18,18,0,0,0-1.38-2.34c-.24-.24-1.08-.36-2.82-.36h-2.46l-.06,2.22a7.57,7.57,0,0,1-.36,2.52c-.36.42-4.44.48-4.62,0Zm19.8,0c-.06-.18-.12-3.84-.06-8.16L146.63.6l2.46-.06,2.4-.06-.06,8.22-.06,8.16-2.34.06c-1.68.06-2.34,0-2.4-.24Zm6.72,0c-.06-.18-.06-3.84-.06-8.16L153.35.6,167.27.54c13.68-.06,14-.06,15.42.48a7.64,7.64,0,0,1,4.38,4.56,13,13,0,0,1-.18,7,9.31,9.31,0,0,1-3,3.3C181.79,17,181.13,17,167,17c-10.62,0-13.5-.06-13.62-.3Zm27.36-4.38a3.72,3.72,0,0,0,1.8-3.48,4.55,4.55,0,0,0-1.44-3.6c-.6-.48-1-.48-11.7-.42l-11,.06-.06,3.6a38.18,38.18,0,0,0,0,4c.12.24,2.34.36,10.86.36,9.9,0,10.74-.06,11.52-.48Zm8.46,4.56c-.12-.12-.18-3.84-.18-8.28V.48h17V4.74H194V6.48h5.64c5.1,0,5.64.06,5.82.48a7,7,0,0,1-.06,3.54,45.55,45.55,0,0,1-5.76.3l-5.52.06V12.6l5.94.12,5.94.06V17h-8.28c-4.62,0-8.46-.06-8.52-.12ZM92.81,6.54a3.52,3.52,0,0,1,.6-1.62c.36-.72,1-2,1.44-2.82L95.63.6l2.1-.12A6.68,6.68,0,0,1,100,.6c.18.24-.78,2.22-1.8,3.66a4.55,4.55,0,0,0-.48.9,2.59,2.59,0,0,1-.54.9c-.54.66-.72.72-2.4.78-1.38.06-1.86,0-2-.3Zm24.84.12c-.06-.24.72-1.8,2.52-5l.54-1,1.86-.12c2.16-.12,2.4-.06,2.4.36a30.67,30.67,0,0,1-3.24,5.82,11.6,11.6,0,0,1-4.08,0Z"/><path class="cls-1" d="M28.25,17.28a7.78,7.78,0,0,0-1.38-.42,11.88,11.88,0,0,1-4.62-2.28,9,9,0,0,1-1.68-2.28,6.42,6.42,0,0,1-.72-3.66c0-2,.12-2.46.72-3.54,1.14-2.16,3.36-3.78,6.48-4.68C28.19.06,29.81,0,36.89,0h8.46l1.86.66A10.25,10.25,0,0,1,53.09,5.1a12.47,12.47,0,0,1,.06,7c-1,2.16-3.18,3.78-6.42,4.8-2.1.66-2.22.66-10.14.66-4.38-.06-8.16-.12-8.34-.24Zm17.34-4.44a4.69,4.69,0,0,0,3.24-3.3,4.16,4.16,0,0,0-1.14-3.72c-1.56-1.56-1.86-1.56-11-1.56H28.49l-1.38.6c-1.86.9-2.22,1.56-2.22,4,0,1.74.06,2,.72,2.64a6.59,6.59,0,0,0,2,1.26c1.14.48,2,.48,9.06.54,6.54,0,7.92-.06,8.94-.42ZM62.33,17c-3.24-.9-5.28-2.34-6.48-4.5-.66-1.26-.72-1.56-.72-3.72s.06-2.58.6-3.54A10.52,10.52,0,0,1,62,.42a28.54,28.54,0,0,1,3.9-.36C68.57,0,69,0,70.85.66,73,1.32,74,1.92,74,2.28a2.81,2.81,0,0,1-.66,1.08c-.36.42-.84,1-1.08,1.38l-.42.6L70.13,4.8a11.39,11.39,0,0,0-4.08-.54c-2.16,0-2.58.06-3.78.66a3.85,3.85,0,0,0-2.34,3.84c.06,2.82,2.28,4.5,6.12,4.5a13.71,13.71,0,0,0,5.1-1c.3-.24,1.08-.06,1.08.24a7.58,7.58,0,0,0,.9,1.38A5,5,0,0,1,74,15.24c0,.36-1.86,1.14-4.08,1.74a14.68,14.68,0,0,1-7.56,0ZM.53,16.8c-.24-.18-.3-1.2-.24-4.44L.35,8.1,6.53,8c4.68-.06,6.24-.18,6.54-.42A1.84,1.84,0,0,0,13,5.1c-.48-.42-1-.48-6.6-.54L.23,4.44v-4H6.59c5.22,0,6.6.12,7.56.42,2.88,1,4.14,2.52,4.14,5.16a4.38,4.38,0,0,1-2,4.26L15.23,11l.48.78c1.32,2,2.58,4.5,2.46,4.8S17.51,17,16,17a8.36,8.36,0,0,1-2.34-.18A22.74,22.74,0,0,1,11,12.54c0-.54-1-.78-3.18-.78-1.56,0-2.34.12-2.46.3a7.05,7.05,0,0,0-.12,2.28c.12,2.52,0,2.64-2.46,2.64A8.18,8.18,0,0,1,.53,16.8Zm75.12-.12c-.36-.3-.42-1-.36-8.16L75.35.6h4.74l.12,2.82c.06,3,.24,3.36,1.2,2.28a18.18,18.18,0,0,1,1.74-1.56c.72-.54,2-1.62,2.82-2.34L87.53.48h3a9.68,9.68,0,0,1,2.94.24c0,.24-2.28,2.16-6.36,5.4a11,11,0,0,0-1.62,1.5c0,.18,7.44,8.16,7.8,8.34.12.06.18.3.18.54,0,.48-.18.48-2.58.48H88.31l-2-2c-1.14-1.14-2.46-2.52-2.94-3.12-1.08-1.2-1.8-1.38-2.58-.48-.48.48-.54.84-.54,2.94s-.12,2.46-.42,2.58a10.8,10.8,0,0,1-4.2-.18Zm26,0c-.42-.3-.42-.84-.36-5.94l.06-5.64,2-.06c1.92-.06,2,0,2,.42,0,.78.42.84,1.26.12.72-.54,1.08-.66,2.82-.78,2.52-.12,3.84.3,5.16,1.86s1.56,2.58,1.62,6.54c.06,2.94,0,3.36-.36,3.54-.66.36-3.36.3-3.66-.06A14.78,14.78,0,0,1,112,13l-.06-3.48-.78-.72a3.23,3.23,0,0,0-5,.54c-.36.66-.48,1.5-.48,4-.06,1.68-.12,3.24-.18,3.42-.18.42-3.18.42-3.72,0Zm25.38.18c-.24-.12-.3-1.2-.3-4.38,0-3.6.06-4.2.36-4.32A49.52,49.52,0,0,1,133,8a38.1,38.1,0,0,0,6.06-.24,1.61,1.61,0,0,0,.12-2.82c-.42-.18-2.4-.36-6.42-.42l-5.88-.12V.6h6.72c6.54,0,6.78.06,7.92.6,3.9,1.92,4.62,6.18,1.5,8.88-.6.48-1,1-1,1.14a19.89,19.89,0,0,0,2.16,4,3.71,3.71,0,0,1,.72,1.56,6.1,6.1,0,0,1-2.4.24c-2.58,0-2.82-.12-3.9-2.28a17.19,17.19,0,0,0-1.26-2.16l-.6-.78h-2.46c-2.94,0-2.82-.06-2.76,2.82a6.13,6.13,0,0,1-.12,2.1c-.18.3-3.66.42-4.32.18Zm19.68-.18c-.18-.24-.24-2.64-.18-8.22L146.63.6h4.74l.06,8,.06,8-.54.18c-1.14.3-3.9.18-4.2-.18Zm6.78.06c-.18-.24-.3-2.16-.3-7.92,0-4.14.06-7.68.18-7.92S155,.48,167.15.48c12.78,0,13.62.06,15.12.54a6.71,6.71,0,0,1,4.38,3.66c.66,1.32.72,1.68.72,4.08s-.06,2.76-.66,4a7.61,7.61,0,0,1-4.2,3.6c-1.32.48-2,.48-15,.54-10.68.06-13.68.06-14-.18Zm27.06-4.2a3.88,3.88,0,0,0,1.26-1.2c1.2-1.8.78-5-.84-6.24-.6-.48-1-.48-11.64-.48h-11l-.06,4.08-.12,4.08h10.86c6.24,0,11.16-.12,11.52-.24Zm8.64,4.2a65.37,65.37,0,0,1-.18-8.16l.06-8,8.46-.06L206,.48v4L200,4.56l-5.94.06v2l5.7.12,5.7.06-.06,1.92-.06,1.92-5.4.06c-2.94.06-5.52.06-5.64.06s-.36.36-.36,1v1H206l-.06,2-.12,2-8.22.06c-4.5,0-8.28-.06-8.4-.12ZM92.75,6.48a13.07,13.07,0,0,1,.78-1.68c.42-.78,1-1.86,1.32-2.4,1-1.86,1-1.92,3.18-1.92,1.14,0,2,.12,2,.3a8.14,8.14,0,0,1-1.44,2.76.72.72,0,0,0-.3.48,8.93,8.93,0,0,1-.78,1.5l-.78,1.26h-2c-1.14,0-2-.12-2-.3Zm25,.06a33.46,33.46,0,0,1,2.4-4.86l.66-1.2h2.1c1.26,0,2,.12,2,.3a17.91,17.91,0,0,1-1.56,3.06,15,15,0,0,0-1,1.68l-.6,1.08-2,.12a4.91,4.91,0,0,1-2-.18Z"/><path class="cls-1" d="M27.47,17c-3.72-1-5.58-2.28-6.78-4.68a6.25,6.25,0,0,1-.84-3.66,6.24,6.24,0,0,1,.72-3.48,9,9,0,0,1,3.48-3.54,25.34,25.34,0,0,1,2.58-1c1.92-.6,2-.6,10.14-.6s8.16,0,10.08.6a25.34,25.34,0,0,1,2.58,1A9.23,9.23,0,0,1,52.91,5.1a6.3,6.3,0,0,1,.66,3.54c0,3-.72,4.62-2.7,6.12a11.32,11.32,0,0,1-5,2.22c-1.74.48-2.58.54-9.3.48-6.18,0-7.74-.12-9.12-.48Zm18.06-4a5.3,5.3,0,0,0,3.12-2.64c.9-2.22-.18-4.62-2.64-5.76-.78-.36-2-.42-8.88-.42-8.76,0-9.66.12-11.16,1.38a4.36,4.36,0,0,0-.18,6.18c1.38,1.44,2,1.5,10.8,1.56a67.83,67.83,0,0,0,8.94-.3Zm17.22,4c-3.72-1-5.7-2.28-6.9-4.62-.66-1.26-.72-1.68-.72-3.72a6.59,6.59,0,0,1,1.92-5.28C58.79,1.38,62.51,0,66.17,0a13.89,13.89,0,0,1,3.3.3,16.77,16.77,0,0,1,4.44,1.8,14.13,14.13,0,0,1-2,3.12,6.59,6.59,0,0,1-1.56-.48c-2-.78-6.18-.84-7.86-.06a4.31,4.31,0,0,0-.24,7.86c1,.48,1.56.6,3.9.6a13.15,13.15,0,0,0,4.26-.48l1.44-.48.42.6c.24.3.72,1,1.08,1.38a3.29,3.29,0,0,1,.66,1c0,.36-2.76,1.5-4.8,1.92A12.92,12.92,0,0,1,62.75,17Zm-47-.18-2.22-.06-.84-1.32A21.65,21.65,0,0,1,11.21,13l-.66-1.08H5.09L5,14.34,5,16.74H.23V8.28l5.7-.06c3.12,0,5.94-.12,6.3-.18a2.79,2.79,0,0,0,1.08-.84c.42-.6.48-.78.18-1.44a2,2,0,0,0-1.08-1A53.47,53.47,0,0,0,5.93,4.5H.23L.29,2.58.35.6l6-.06c4.74-.06,6.3.06,7.5.36a6.34,6.34,0,0,1,3.72,2.4,7,7,0,0,1,.54,4.32,5.27,5.27,0,0,1-2.4,3c-.24.12-.48.24-.48.36a19.48,19.48,0,0,0,1.5,2.64c1.44,2.4,1.74,3,1.32,3.18a13.42,13.42,0,0,1-2.34,0Zm74.76,0L88,16.74l-2.88-3.12A43,43,0,0,0,82,10.5a3.3,3.3,0,0,0-1,.66c-.78.6-.78.66-.84,3.06l-.12,2.4H75.47V8.76c0-4.38.06-7.92.24-8A7.82,7.82,0,0,1,78,.54l2.1.06.06,2.82a17.35,17.35,0,0,0,.18,3c.12.12.6-.24,1.08-.72s1.5-1.32,2.22-1.86,1.86-1.5,2.58-2.16L87.59.48h2.82c2.1,0,2.82.12,2.82.36a9.43,9.43,0,0,1-1.92,1.8c-1,.84-2,1.62-2.16,1.74s-1,.84-1.92,1.62a6.17,6.17,0,0,0-1.62,1.62,23.29,23.29,0,0,0,2.64,3.12c4.86,5.16,5.22,5.64,5.16,5.88s-.06.3-2.94.18Zm51.6-.06-2.34-.12-1-1.86c-1.74-3.3-1.32-3.06-4.44-2.94l-2.64.06-.06,2.46-.12,2.4-2.28-.06-2.28-.06V8.4l5.88-.12c5-.12,5.94-.24,6.54-.6a1.67,1.67,0,0,0,.18-2.58c-.48-.42-1.08-.48-6.6-.6l-6-.12L126.77,3a8.26,8.26,0,0,1,.12-1.92l.12-.6,6.54.06c7.08.12,7.8.24,9.3,1.5a5.24,5.24,0,0,1,1.92,4.14c.06,1.74-.42,2.64-1.92,4l-1.14,1,1.2,2.1c.66,1.14,1.38,2.34,1.62,2.7s.24.6.06.72a9.11,9.11,0,0,1-2.52.06Zm-40.56-.18c-.12-1.32,0-11.1.12-11.28s.9-.3,1.86-.3c1.68,0,1.8.06,2,.66.3.78.42.78,1.32,0,1.32-1.14,4.62-1.14,6.54-.06,2.34,1.38,2.94,2.94,2.94,7.74v3.42h-2a5.14,5.14,0,0,1-2-.18c-.12-7.14-.24-7.62-1.74-8.46a3.79,3.79,0,0,0-3.6.18c-1.2,1-1.44,1.68-1.44,5.22v3.24h-2a5.14,5.14,0,0,1-2-.18Zm45.18.06c-.12-.12-.18-3.66-.18-7.86,0-6.36.06-7.74.36-8a4.93,4.93,0,0,1,2.4-.24l2.1.06v16l-2.28.06a11.35,11.35,0,0,1-2.4-.06Zm6.72-7.68c0-5,.06-7.92.24-8.1s2.46-.36,14-.3c13.68.06,13.74.06,15.18.66A8,8,0,0,1,187,5.64a13.18,13.18,0,0,1,0,6.12,8.26,8.26,0,0,1-2.7,3.66,8.07,8.07,0,0,1-2,.84c-1.32.48-2.46.48-15.12.48H153.53Zm28.14,2.82c.9-1,1-1.08,1-2.94,0-2.4-.66-3.66-2.22-4.08-.66-.18-4.74-.24-11.46-.18l-10.44.06-.06,4.08-.12,4.08h22.38Zm7.56,4.68c-.06-.18-.12-3.78-.06-8l.06-7.8,8.46-.06L206,.48v4H194V6.72l5.7.06,5.7.12v3.48l-5.64.12-5.64.12L194,11.7,194,12.78h12v4h-8.34c-6.54,0-8.4-.06-8.52-.3ZM92.87,6.54A8.46,8.46,0,0,1,94,4.08c.66-1.2,1.2-2.34,1.26-2.46,0-.78.9-1.14,2.82-1.14A4.17,4.17,0,0,1,100,.72c0,.3-.3.84-2.22,4.08l-1.08,2H94.85a5.25,5.25,0,0,1-2-.24Zm24.9-.06a6.1,6.1,0,0,1,.66-1.38c.36-.66,1-1.8,1.26-2.46,1-2,1.14-2.16,3.18-2.16a5,5,0,0,1,2,.24c.12.24-.6,1.68-1.68,3.48a6.35,6.35,0,0,0-.66,1.26,3.45,3.45,0,0,1-.48.72c-.42.48-.72.54-2.4.54-1,0-1.86-.06-1.86-.24Z"/><path class="cls-1" d="M28.37,17.1c-3-.66-5.28-1.74-6.54-3.06a9.35,9.35,0,0,1-2-6.24c.6-3,1.8-4.8,4.08-6C26.87.24,27.53.12,36.47.06a69,69,0,0,1,8.76.18c.36.12,1.32.42,2.16.66a10.32,10.32,0,0,1,5.34,3.9c.54.9.66,1.5.72,3.48.12,2.16.06,2.58-.54,3.78-.66,1.56-1.26,2.16-3.06,3.3-1.38.9-2.34,1.2-5,1.74-2.4.54-14.16.48-16.44,0Zm17.88-4.44c1.62-.84,2.52-1.8,2.7-3.18a4.43,4.43,0,0,0-2.52-4.8c-1-.54-1.38-.54-9-.66-6.72-.06-8.16,0-9.36.36A4.43,4.43,0,0,0,24.71,10a3.75,3.75,0,0,0,2.22,2.7c1.5.72,3,.78,10.56.78l7.38-.06ZM63.59,17.1a13.09,13.09,0,0,1-5-1.86A7.79,7.79,0,0,1,55.91,5.1c1.38-2.94,5-4.8,9.84-5a14.35,14.35,0,0,1,5.88,1A11,11,0,0,1,74,2.22c0,.06-2.28,3.06-2.34,3.06a4.85,4.85,0,0,1-.84-.42c-1.86-1-6.36-1.08-8.28-.3a4.33,4.33,0,0,0-2.7,4.74c.3,2.28,1.74,3.48,4.74,4,1.92.3,5.58-.12,6.3-.78s1.44.06,2.94,2.46c.42.54-1.86,1.5-5.22,2.16a8.79,8.79,0,0,1-5,0ZM.23,12.48V8.28h5.7A39.27,39.27,0,0,0,12.47,8a1.62,1.62,0,0,0,.78-2.76c-.48-.6-.54-.6-6.66-.72L.35,4.38.29,2.58C.23.78.23.78.89.6,1.25.54,4.19.48,7.43.54c6.6.18,7.5.36,9.24,1.8A5.32,5.32,0,0,1,17.93,8a5.06,5.06,0,0,1-2.34,2.64c-.36.24-.42.36-.18.72s.54,1,.9,1.62,1,1.62,1.32,2.22a6.67,6.67,0,0,1,.6,1.26c0,.18-.84.24-2.4.18-2.16-.06-2.46-.12-2.7-.54a20.2,20.2,0,0,0-1.2-2,9,9,0,0,1-1-1.8c0-.42-.9-.6-3.48-.48l-2.4.06L5,14.34,5,16.74H.23ZM75.47,8.76c0-7,.06-8,.42-8.1.72-.3,3.84-.18,4,.12a19,19,0,0,1,.18,2.94c0,1.74.12,2.64.3,2.7s.78-.36,1.38-1,1.5-1.32,2-1.68,1.56-1.26,2.46-2L87.77.48h2.7a8.06,8.06,0,0,1,2.76.24,5.67,5.67,0,0,1-1.56,1.56c-2.58,2.1-6.42,5.28-6.42,5.4a2.66,2.66,0,0,0,.3.36c3.54,3.72,7.92,8.46,7.92,8.58a16,16,0,0,1-2.7.12h-2.7l-2.28-2.46C84.53,13,83.27,11.58,83,11.16c-.66-.84-1.2-.84-2.22.06C80,11.94,80,12,80,14c.06,1.14.06,2.22.06,2.4s-.66.3-2.28.3H75.47Zm26,2.22V5.28l.54-.18A9.64,9.64,0,0,1,104,5c1.2.06,1.32.18,1.44.66.06.72.3.72,1.38-.06a6.73,6.73,0,0,1,6-.24,7.09,7.09,0,0,1,1.86,1.44c1.26,1.44,1.62,3.06,1.5,6.9l-.12,2.88-1.92.06-1.92.12V13.5c0-3.54-.18-4.26-1.38-5.22a4.33,4.33,0,0,0-4-.06c-1.14.84-1.38,1.8-1.38,5.28v3.24h-4ZM127,16.56c0-.12-.06-2-.06-4.2v-4L133,8.28l6-.18.66-.66c.78-.9.72-1.32-.18-2.22l-.72-.72h-5.88A45.75,45.75,0,0,1,127,4.32c0-.12,0-.9-.06-1.8,0-1.32.06-1.62.42-1.8.66-.36,12-.12,13.26.24a10,10,0,0,1,2,1c2.88,1.92,3,6.48.12,8.28-.48.36-.9.78-.9,1a13.31,13.31,0,0,0,1.5,2.76c.78,1.32,1.5,2.46,1.5,2.58a6.53,6.53,0,0,1-2.4.24c-2.7,0-2.46.18-4.2-3.06a8.5,8.5,0,0,0-1.2-1.8,19,19,0,0,0-5.22.06,9.21,9.21,0,0,0-.3,2.46l-.06,2.22-2.22.06a5.32,5.32,0,0,1-2.16-.12Zm19.74-7.8c0-7,.06-8,.42-8.1A10,10,0,0,1,151,.72c.24.18.3,1.86.3,7.86V16.5a5.4,5.4,0,0,1-2.28.24h-2.22v-8Zm6.72,0v-8l.6-.18c.3-.06,6.54-.12,13.8-.06,13.56.12,13.5.12,15.78,1.08a8.29,8.29,0,0,1,3.12,3.54,8.4,8.4,0,0,1,.48,3.48c0,3.42-.78,5.22-2.94,6.66-2,1.38-2.64,1.44-17.34,1.44h-13.5v-8Zm26.64,4c2.64-.6,3.54-4.86,1.5-7.2l-.78-1-11.28-.06L158.27,4.5V8.58c0,2.22.06,4.14.12,4.26.3.24,20.58.18,21.72-.06Zm9.12,3.78c-.06-6.42.06-15.66.18-15.84s3.9-.18,8.34-.18l8.1.06.12,2L206,4.5H194l-.18.6c-.36,1.56-.54,1.5,5.76,1.68l5.76.12v3.48l-5.64.06c-5.94.06-6,.06-6,1.32S194,13,200.15,13h5.7l.12,1.92.06,1.86h-8.4c-4.62,0-8.4-.06-8.4-.18Zm-96.3-10c-.12-.12.18-.72.54-1.44s1.08-2,1.5-2.82A4.36,4.36,0,0,1,96.17.66a9.16,9.16,0,0,1,3.66.06c.18.3-.6,1.74-2.28,4.32L96.47,6.78H94.79a7,7,0,0,1-1.86-.18Zm25-.12c-.12-.12-.06-.36.06-.54s.78-1.32,1.44-2.58A12.75,12.75,0,0,1,121,.84c.42-.36,3.6-.48,3.84-.18s-.66,1.8-2.1,4.2L121.61,6.6l-1.8.12c-1.08,0-1.86-.06-1.92-.24Z"/><path class="cls-1" d="M27.65,16.86c-3.3-.66-5.52-2.1-6.78-4.38-.66-1.26-.78-1.56-.78-3.72s.12-2.58.66-3.6a9,9,0,0,1,4-3.72C27.23.3,28.49.18,36.41.06,43.91,0,44,0,46.31.66a10.33,10.33,0,0,1,5,2.58c1.62,1.44,2,2.52,2,5.4,0,2.16-.12,2.7-.66,3.72a6.09,6.09,0,0,1-1.32,1.8c-.42.36-1,.78-1.2,1A11.5,11.5,0,0,1,45,17a119.23,119.23,0,0,1-17.34-.12Zm18.66-4.08a5.42,5.42,0,0,0,2.82-3.42,4.3,4.3,0,0,0-1.2-3.54c-1.62-1.74-1.44-1.68-10.62-1.74s-9.9,0-11.52,1.38a4.5,4.5,0,0,0,.24,6.6c1.8,1.38,2.4,1.44,11.1,1.38,7.86-.06,8-.06,9.18-.66Zm16.62,4.08c-3.54-.72-5.88-2.28-7-4.74a6.46,6.46,0,0,1-.66-3.42c0-4.38,2.28-6.84,7.62-8.22A11.4,11.4,0,0,1,69.05.42c3,.72,4.68,1.38,4.68,1.8A8.35,8.35,0,0,1,71.57,5a6.1,6.1,0,0,1-1.26-.36,12.29,12.29,0,0,0-3.48-.54,8.65,8.65,0,0,0-3.84.3c-2.64,1-4,3.3-3.12,5.64s2.52,3.3,6.24,3.36a10.32,10.32,0,0,0,5.1-1c.48-.24.66-.24.72,0a11.12,11.12,0,0,0,1,1.44,5,5,0,0,1,.84,1.32c0,.48-2.52,1.38-5,1.8a14.65,14.65,0,0,1-5.82-.12ZM.35,16.44c-.06-.18-.06-2.1-.06-4.2L.35,8.4l6.24-.12c6.18-.18,6.18-.18,6.72-.78a1.75,1.75,0,0,0-.42-2.58c-.66-.54-1-.54-6.66-.6l-6-.12V.78H6.59c7,0,8,.12,9.84,1.5a3.17,3.17,0,0,1,1.44,2,4.85,4.85,0,0,1-.06,3.78,3.48,3.48,0,0,1-1.5,2c-.6.42-1.08.9-1.08,1.08a6.69,6.69,0,0,0,.9,1.68c1.26,2,2.1,3.6,1.92,3.78a11.76,11.76,0,0,1-2.16.12c-2.4,0-2.28.06-3.84-2.64s-1.44-2.58-4.14-2.58a10.39,10.39,0,0,0-2.58.18A5.31,5.31,0,0,0,5,14.28l-.12,2.34-2.16.06c-1.68.06-2.22,0-2.34-.24Zm75.3.18c-.06-.12-.18-3.72-.18-8V.78H80V3.6c0,3.42.18,3.54,2,1.86C83.45,4.08,86.93,1.2,87.35,1A27.13,27.13,0,0,1,93.17.84a7.08,7.08,0,0,1-1.62,1.44c-.9.72-2.46,2-3.48,2.88A16.93,16.93,0,0,1,85.79,7c-.3.18-.54.42-.54.6s7.38,8.22,7.8,8.4a.47.47,0,0,1,.18.42c0,.3-.48.36-2.46.36H88.25l-2-2c-1.08-1.14-2.4-2.58-2.88-3.12-1.14-1.26-1.8-1.38-2.7-.36-.6.6-.66.84-.72,3.06l-.12,2.34-2,.06a9.87,9.87,0,0,1-2.22-.06Zm26,0a44.7,44.7,0,0,1-.18-5.76V5.28h1.86a4.54,4.54,0,0,1,1.86.18,1.7,1.7,0,0,0,.36.6c.3.42.3.42.78,0C107.39,5.16,108,5,110,5c2.46,0,3.6.54,4.86,2.22,1,1.32,1.44,3.48,1.32,6.9l-.12,2.52h-3.72l-.12-3.36c-.12-3.6-.36-4.44-1.44-5.16a5,5,0,0,0-4,0c-1,.72-1.2,1.38-1.38,5l-.12,3.48-1.74.06a7.33,7.33,0,0,1-1.92-.06ZM127,12.48V8.28h5.76c4.68,0,5.88-.12,6.48-.42,1.44-.72,1.2-2.58-.36-3.24-.66-.3-2.16-.36-6.36-.36H127V.78h6.18c6.9,0,8,.12,9.6,1.5a4.72,4.72,0,0,1,.06,7.62,3.83,3.83,0,0,0-1.08,1.26,26.44,26.44,0,0,0,2.28,4.26,6.9,6.9,0,0,1,.72,1.2,11.17,11.17,0,0,1-2.46.06l-2.46-.06-1-2c-1.74-3.18-1.74-3.18-4.68-3.06l-2.52.06-.12,2.46-.12,2.52-2.22.06-2.16.06Zm19.92,4.14c-.12-.12-.18-3.72-.18-8V.78h4.5l-.06,7.92-.06,7.92-2,.06a9.23,9.23,0,0,1-2.16-.06Zm6.72-.06c-.06-.06-.18-3.66-.18-8V.78h13.74c14.28,0,14.7,0,16.74,1.08a7.59,7.59,0,0,1,2.88,3.66,11.78,11.78,0,0,1-.12,6.6,7,7,0,0,1-3.12,3.54c-1.74,1-3.3,1.08-16.74,1.08-7.14,0-13.08-.06-13.2-.18Zm26.82-3.78a3.73,3.73,0,0,0,1.38-1.14c.72-.84.78-1.08.78-2.88,0-2.16-.3-2.82-1.74-3.84-.66-.54-1-.54-11.46-.6-10-.06-10.8-.06-11.1.36s-.48,7.14-.18,7.92c.12.36,1.32.42,10.92.36,5.94,0,11.1-.06,11.4-.18Zm8.76-4v-8H206V4.26h-5.82c-6.48,0-6.48,0-6.36,1.56l.06.78,5.7.12,5.64.06.12,1.5a6,6,0,0,1-.18,1.86c-.18.3-1.5.36-5.76.42l-5.52.06V12.9l6.06.06L206,13v3.72H189.23ZM93,6.48a46.56,46.56,0,0,1,2.82-5.4,10.54,10.54,0,0,1,4.08-.3,19.12,19.12,0,0,1-1.56,2.88l-1.62,2.7-1.86.12a8,8,0,0,1-1.86,0Zm24.9.06a4.48,4.48,0,0,1,.72-1.5c.42-.78,1.08-2.1,1.5-2.88l.72-1.38h2a10.83,10.83,0,0,1,1.92.06,10.52,10.52,0,0,1-1.14,2.4c-.24.36-.72,1.14-1.08,1.74a14.39,14.39,0,0,1-.72,1.32,14.37,14.37,0,0,1-3.9.24Z"/><path class="cls-1" d="M34.49,17c-8.28-.18-8.82-.24-11.58-2.22-2-1.5-2.76-3.12-2.76-6.12A6.42,6.42,0,0,1,22,3.42,10.26,10.26,0,0,1,26.69.84,22.44,22.44,0,0,0,29,.36,42.94,42.94,0,0,1,36.65,0c5.46,0,6.66.06,8.64.54,4,.84,6.36,2.34,7.44,4.62a6.94,6.94,0,0,1,.6,3.6c0,2.22-.06,2.52-.78,3.78-1.26,2.28-4.08,3.84-7.68,4.32-2.4.3-3.06.3-10.38.12ZM46.13,12.9c4-1.92,4.2-6.18.36-8.28L45.11,3.9H37c-8.82,0-9.12,0-11,1.38a3.43,3.43,0,0,0-1.44,2.1,3.05,3.05,0,0,0,0,2.7,4.23,4.23,0,0,0,3,2.94c.9.42,2.1.48,9.18.48,8,0,8.1,0,9.36-.6Zm17.58,4c-3.78-.54-6.42-2.1-7.62-4.5-.66-1.26-.72-1.68-.72-3.72s.06-2.4.72-3.6c1.38-2.46,3.6-3.78,7.8-4.68C66-.06,66.23-.06,69.47.6c1.8.42,4.26,1.32,4.26,1.62A19.64,19.64,0,0,1,71.63,5c-.06,0-.72-.24-1.44-.48a13.09,13.09,0,0,0-7.74,0,4.76,4.76,0,0,0-2.7,3.06,2.79,2.79,0,0,0-.06,2.1,4.15,4.15,0,0,0,2.46,3.12c2.16,1,7.08.9,8.82-.18.3-.24.66-.3.78-.18a15.89,15.89,0,0,1,2,2.76c0,.18-.18.3-.42.42a15.3,15.3,0,0,0-1.74.6,17.72,17.72,0,0,1-2.82.66c-.9.12-1.92.24-2.28.24a14.93,14.93,0,0,1-2.76-.24ZM.65,16.56c-.36-.12-.42-.42-.36-4.08v-4l5.94-.06c5.64-.06,6-.12,6.66-.6a1.84,1.84,0,0,0,.72-2.28C13.37,4.44,12.35,4.26,6,4.26H.29L.35,2.58V.9l6-.12c7-.06,8.4.18,10.08,1.62a4.41,4.41,0,0,1,1.62,3.66,4.77,4.77,0,0,1-2.7,4.56c-.36.24-.36.36.42,1.74.48.84,1.14,2,1.5,2.64A4.24,4.24,0,0,1,18,16.38c0,.36-4.14.3-4.62-.12a1.19,1.19,0,0,1-.36-.54,8.42,8.42,0,0,0-.9-1.56,8.11,8.11,0,0,1-.84-1.62,1.43,1.43,0,0,0-.42-.66c-.48-.48-5.46-.54-5.76-.06A8.3,8.3,0,0,0,5,14.34a7,7,0,0,1-.12,2.16,34.11,34.11,0,0,1-4.2.06Zm75.06-.06a78.07,78.07,0,0,1-.18-7.92L75.59.9h4.26L80,3.78c.12,1.62.24,2.82.42,2.82A50.71,50.71,0,0,0,86,2L87.53.78h2.76A9.28,9.28,0,0,1,93,1a19.19,19.19,0,0,1-1.8,1.56c-1,.72-2.28,1.8-2.94,2.4s-1.56,1.32-2.1,1.68-.9.9-.84,1A24.8,24.8,0,0,0,88,10.8c4.86,5.16,5.22,5.58,5.22,5.7a11.57,11.57,0,0,1-2.52.06H88.13l-3-3.18a33.47,33.47,0,0,0-3.24-3.12,3.3,3.3,0,0,0-1,.66c-.78.66-.84.72-1,3.12l-.12,2.52-1.92.06a13.24,13.24,0,0,1-2.22-.12Zm26,0c-.18-.12-.24-2.34-.18-5.64l.06-5.46,1.8-.12c1.68-.06,1.8,0,1.8.48,0,.72.72.9,1.32.3,1-.84,1.62-1.08,3.42-1.08a5.28,5.28,0,0,1,4.26,1.56c1.5,1.5,1.56,1.68,1.74,5.76a26.79,26.79,0,0,1,0,4.08c-.18.24-2,.3-3.54.12a14,14,0,0,1-.18-3.3c0-3.84-.3-4.68-1.92-5.34a3.34,3.34,0,0,0-4,.78c-.9,1-1.14,2.28-1.08,5.46.06,1.08.06,2.16.06,2.28a8.6,8.6,0,0,1-3.54.12Zm25.5.06c-.18-.06-.24-1.5-.24-4.08v-4l5.82-.06c5.52-.06,5.94-.12,6.6-.6a1.52,1.52,0,0,0,.66-1.5,1.45,1.45,0,0,0-.84-1.56c-.78-.54-1-.54-6.54-.54H127V.78H133c6.36,0,8.16.24,9.54,1.2a5.23,5.23,0,0,1,2,3.12c.6,2.16-.18,3.72-2.7,5.64-.42.36-.24.72,1.32,3.3a22.7,22.7,0,0,1,1.38,2.34,7.46,7.46,0,0,1-2.22.24c-2.1,0-2.16,0-2.7-.72a11.19,11.19,0,0,1-1-1.68c-1.38-2.82-1.32-2.7-4.38-2.7s-3.06-.12-3,2.82a7.79,7.79,0,0,1-.12,2.1,20.35,20.35,0,0,1-3.9.12Zm19.56-.18c0-.12-.06-3.72,0-7.86L146.87.9h4.26l.06,7.8a68.85,68.85,0,0,1-.12,7.8,14.91,14.91,0,0,1-4.26-.12Zm6.78,0c-.06-.12-.06-3.72-.06-7.86L153.59.9,166.73.78c13.62-.06,14.88,0,16.8,1a13.78,13.78,0,0,1,1.92,1.62,8.66,8.66,0,0,1-.18,10.86c-2.1,2.16-2,2.16-11,2.22-4.32.06-10.74.06-14.22.12-4.08.06-6.36,0-6.42-.18Zm28.08-4.44,1-1V8.82c0-1.92-.06-2.28-.6-3.06-1.08-1.5-1.14-1.5-13-1.5-9.54,0-10.74.06-10.86.36a53.65,53.65,0,0,0,0,8.22c.12.12,5.22.12,11.4.12l11.16-.06,1-1Zm7.68,4.56c-.06-.06-.12-3.6-.12-7.92V.78H206V4.26l-6.06.06-6.06.06V6.9h5.64l5.64.06.06,1.62.06,1.68-5.7.06-5.7.06V12.9L200,13,206,13,206,14.76l-.12,1.8h-8.16c-4.56.06-8.28,0-8.34-.06ZM93.05,6.3l.84-1.56c.36-.72,1-1.92,1.38-2.64l.6-1.2,2-.12A6.92,6.92,0,0,1,99.71.9a27.78,27.78,0,0,1-1.86,3.48c-.36.54-.72,1.26-.9,1.56-.24.48-.48.54-2.16.54-1,0-1.8-.06-1.74-.18Zm25,.12c0-.06.42-.9.9-1.86s1.14-2.16,1.44-2.7l.54-1,1.92-.12a10.83,10.83,0,0,1,1.92.06,25.82,25.82,0,0,1-1.8,3.3c-.3.54-.72,1.32-.9,1.68-.36.66-.48.66-2.22.66a9.47,9.47,0,0,1-1.8-.06Z"/></g></g></svg>